<svg width="214" height="214" viewBox="0 0 214 214" fill="none" xmlns="http://www.w3.org/2000/svg">
<g id="Group 47269">
<circle id="Ellipse 32" cx="4.27619" cy="4.27619" r="4.27619" fill="#00FF84" fill-opacity="0.2"/>
<circle id="Ellipse 33" cx="29.9345" cy="4.27668" r="4.27619" fill="#00FF84" fill-opacity="0.2"/>
<circle id="Ellipse 34" cx="55.5913" cy="4.27668" r="4.27619" fill="#00FF84" fill-opacity="0.2"/>
<circle id="Ellipse 35" cx="81.2492" cy="4.27668" r="4.27619" fill="#00FF84" fill-opacity="0.2"/>
<circle id="Ellipse 36" cx="106.906" cy="4.27668" r="4.27619" fill="#00FF84" fill-opacity="0.2"/>
<circle id="Ellipse 37" cx="132.563" cy="4.27668" r="4.27619" fill="#00FF84" fill-opacity="0.2"/>
<circle id="Ellipse 38" cx="158.219" cy="4.27668" r="4.27619" fill="#00FF84" fill-opacity="0.2"/>
<circle id="Ellipse 39" cx="183.879" cy="4.27668" r="4.27619" fill="#00FF84" fill-opacity="0.2"/>
<circle id="Ellipse 40" cx="209.535" cy="4.27668" r="4.27619" fill="#00FF84" fill-opacity="0.2"/>
<circle id="Ellipse 41" cx="4.27668" cy="29.9351" r="4.27619" fill="#00FF84" fill-opacity="0.2"/>
<circle id="Ellipse 50" cx="4.27668" cy="55.5914" r="4.27619" fill="#00FF84" fill-opacity="0.2"/>
<circle id="Ellipse 59" cx="4.27668" cy="81.2484" r="4.27619" fill="#00FF84" fill-opacity="0.2"/>
<circle id="Ellipse 68" cx="4.27668" cy="106.904" r="4.27619" fill="#00FF84" fill-opacity="0.2"/>
<circle id="Ellipse 77" cx="4.27668" cy="132.562" r="4.27619" fill="#00FF84" fill-opacity="0.2"/>
<circle id="Ellipse 86" cx="4.27668" cy="158.221" r="4.27619" fill="#00FF84" fill-opacity="0.2"/>
<circle id="Ellipse 95" cx="4.27668" cy="183.877" r="4.27619" fill="#00FF84" fill-opacity="0.2"/>
<circle id="Ellipse 104" cx="4.27668" cy="209.534" r="4.27619" fill="#00FF84" fill-opacity="0.2"/>
<circle id="Ellipse 42" cx="29.9345" cy="29.9351" r="4.27619" fill="#00FF84" fill-opacity="0.2"/>
<circle id="Ellipse 51" cx="29.9345" cy="55.5914" r="4.27619" fill="#00FF84" fill-opacity="0.2"/>
<circle id="Ellipse 60" cx="29.9345" cy="81.2484" r="4.27619" fill="#00FF84" fill-opacity="0.2"/>
<circle id="Ellipse 69" cx="29.9345" cy="106.904" r="4.27619" fill="#00FF84" fill-opacity="0.2"/>
<circle id="Ellipse 78" cx="29.9345" cy="132.562" r="4.27619" fill="#00FF84" fill-opacity="0.2"/>
<circle id="Ellipse 87" cx="29.9345" cy="158.221" r="4.27619" fill="#00FF84" fill-opacity="0.2"/>
<circle id="Ellipse 96" cx="29.9345" cy="183.877" r="4.27619" fill="#00FF84" fill-opacity="0.2"/>
<circle id="Ellipse 105" cx="29.9345" cy="209.534" r="4.27619" fill="#00FF84" fill-opacity="0.2"/>
<circle id="Ellipse 43" cx="55.5913" cy="29.9351" r="4.27619" fill="#00FF84" fill-opacity="0.2"/>
<circle id="Ellipse 52" cx="55.5913" cy="55.5914" r="4.27619" fill="#00FF84" fill-opacity="0.2"/>
<circle id="Ellipse 61" cx="55.5913" cy="81.2484" r="4.27619" fill="#00FF84" fill-opacity="0.2"/>
<circle id="Ellipse 70" cx="55.5913" cy="106.904" r="4.27619" fill="#00FF84" fill-opacity="0.2"/>
<circle id="Ellipse 79" cx="55.5913" cy="132.562" r="4.27619" fill="#00FF84" fill-opacity="0.2"/>
<circle id="Ellipse 88" cx="55.5913" cy="158.221" r="4.27619" fill="#00FF84" fill-opacity="0.2"/>
<circle id="Ellipse 97" cx="55.5913" cy="183.877" r="4.27619" fill="#00FF84" fill-opacity="0.2"/>
<circle id="Ellipse 106" cx="55.5913" cy="209.534" r="4.27619" fill="#00FF84" fill-opacity="0.2"/>
<circle id="Ellipse 44" cx="81.2492" cy="29.9351" r="4.27619" fill="#00FF84" fill-opacity="0.2"/>
<circle id="Ellipse 53" cx="81.2492" cy="55.5914" r="4.27619" fill="#00FF84" fill-opacity="0.2"/>
<circle id="Ellipse 62" cx="81.2492" cy="81.2484" r="4.27619" fill="#00FF84" fill-opacity="0.2"/>
<circle id="Ellipse 71" cx="81.2492" cy="106.904" r="4.27619" fill="#00FF84" fill-opacity="0.2"/>
<circle id="Ellipse 80" cx="81.2492" cy="132.562" r="4.27619" fill="#00FF84" fill-opacity="0.2"/>
<circle id="Ellipse 89" cx="81.2492" cy="158.221" r="4.27619" fill="#00FF84" fill-opacity="0.2"/>
<circle id="Ellipse 98" cx="81.2492" cy="183.877" r="4.27619" fill="#00FF84" fill-opacity="0.2"/>
<circle id="Ellipse 107" cx="81.2492" cy="209.534" r="4.27619" fill="#00FF84" fill-opacity="0.2"/>
<circle id="Ellipse 45" cx="106.906" cy="29.9351" r="4.27619" fill="#00FF84" fill-opacity="0.2"/>
<circle id="Ellipse 54" cx="106.906" cy="55.5914" r="4.27619" fill="#00FF84" fill-opacity="0.2"/>
<circle id="Ellipse 63" cx="106.906" cy="81.2484" r="4.27619" fill="#00FF84" fill-opacity="0.2"/>
<circle id="Ellipse 72" cx="106.906" cy="106.904" r="4.27619" fill="#00FF84" fill-opacity="0.2"/>
<circle id="Ellipse 81" cx="106.906" cy="132.562" r="4.27619" fill="#00FF84" fill-opacity="0.2"/>
<circle id="Ellipse 90" cx="106.906" cy="158.221" r="4.27619" fill="#00FF84" fill-opacity="0.2"/>
<circle id="Ellipse 99" cx="106.906" cy="183.877" r="4.27619" fill="#00FF84" fill-opacity="0.2"/>
<circle id="Ellipse 108" cx="106.906" cy="209.534" r="4.27619" fill="#00FF84" fill-opacity="0.2"/>
<circle id="Ellipse 46" cx="132.563" cy="29.9351" r="4.27619" fill="#00FF84" fill-opacity="0.2"/>
<circle id="Ellipse 55" cx="132.563" cy="55.5914" r="4.27619" fill="#00FF84" fill-opacity="0.2"/>
<circle id="Ellipse 64" cx="132.563" cy="81.2484" r="4.27619" fill="#00FF84" fill-opacity="0.2"/>
<circle id="Ellipse 73" cx="132.563" cy="106.904" r="4.27619" fill="#00FF84" fill-opacity="0.2"/>
<circle id="Ellipse 82" cx="132.563" cy="132.562" r="4.27619" fill="#00FF84" fill-opacity="0.2"/>
<circle id="Ellipse 91" cx="132.563" cy="158.221" r="4.27619" fill="#00FF84" fill-opacity="0.2"/>
<circle id="Ellipse 100" cx="132.563" cy="183.877" r="4.27619" fill="#00FF84" fill-opacity="0.2"/>
<circle id="Ellipse 109" cx="132.563" cy="209.534" r="4.27619" fill="#00FF84" fill-opacity="0.2"/>
<circle id="Ellipse 47" cx="158.219" cy="29.9351" r="4.27619" fill="#00FF84" fill-opacity="0.2"/>
<circle id="Ellipse 56" cx="158.219" cy="55.5914" r="4.27619" fill="#00FF84" fill-opacity="0.2"/>
<circle id="Ellipse 65" cx="158.219" cy="81.2484" r="4.27619" fill="#00FF84" fill-opacity="0.2"/>
<circle id="Ellipse 74" cx="158.219" cy="106.904" r="4.27619" fill="#00FF84" fill-opacity="0.2"/>
<circle id="Ellipse 83" cx="158.219" cy="132.562" r="4.27619" fill="#00FF84" fill-opacity="0.2"/>
<circle id="Ellipse 92" cx="158.219" cy="158.221" r="4.27619" fill="#00FF84" fill-opacity="0.2"/>
<circle id="Ellipse 101" cx="158.219" cy="183.877" r="4.27619" fill="#00FF84" fill-opacity="0.2"/>
<circle id="Ellipse 110" cx="158.219" cy="209.534" r="4.27619" fill="#00FF84" fill-opacity="0.2"/>
<circle id="Ellipse 48" cx="183.879" cy="29.9351" r="4.27619" fill="#00FF84" fill-opacity="0.2"/>
<circle id="Ellipse 57" cx="183.879" cy="55.5914" r="4.27619" fill="#00FF84" fill-opacity="0.2"/>
<circle id="Ellipse 66" cx="183.879" cy="81.2484" r="4.27619" fill="#00FF84" fill-opacity="0.2"/>
<circle id="Ellipse 75" cx="183.879" cy="106.904" r="4.27619" fill="#00FF84" fill-opacity="0.2"/>
<circle id="Ellipse 84" cx="183.879" cy="132.562" r="4.27619" fill="#00FF84" fill-opacity="0.2"/>
<circle id="Ellipse 93" cx="183.879" cy="158.221" r="4.27619" fill="#00FF84" fill-opacity="0.2"/>
<circle id="Ellipse 102" cx="183.879" cy="183.877" r="4.27619" fill="#00FF84" fill-opacity="0.2"/>
<circle id="Ellipse 111" cx="183.879" cy="209.534" r="4.27619" fill="#00FF84" fill-opacity="0.2"/>
<circle id="Ellipse 49" cx="209.535" cy="29.9351" r="4.27619" fill="#00FF84" fill-opacity="0.2"/>
<circle id="Ellipse 58" cx="209.535" cy="55.5914" r="4.27619" fill="#00FF84" fill-opacity="0.2"/>
<circle id="Ellipse 67" cx="209.535" cy="81.2484" r="4.27619" fill="#00FF84" fill-opacity="0.2"/>
<circle id="Ellipse 76" cx="209.535" cy="106.904" r="4.27619" fill="#00FF84" fill-opacity="0.2"/>
<circle id="Ellipse 85" cx="209.535" cy="132.562" r="4.27619" fill="#00FF84" fill-opacity="0.2"/>
<circle id="Ellipse 94" cx="209.535" cy="158.221" r="4.27619" fill="#00FF84" fill-opacity="0.2"/>
<circle id="Ellipse 103" cx="209.535" cy="183.877" r="4.27619" fill="#00FF84" fill-opacity="0.2"/>
<circle id="Ellipse 112" cx="209.535" cy="209.534" r="4.27619" fill="#00FF84" fill-opacity="0.2"/>
</g>
</svg>
